HIERARCHY
ROOT Hips
{
  OFFSET -17.1084 24.3355 -21.8382
  CHANNELS 6 Xposition Yposition Zposition Zrotation Xrotation Yrotation
  JOINT LeftHip
  {
    OFFSET 3.43 -1.42109e-014 3.55271e-015
    CHANNELS 3 Zrotation Xrotation Yrotation
    JOINT LeftKnee
    {
      OFFSET 2.94875e-013 -18.47 1.91847e-013
      CHANNELS 3 Zrotation Xrotation Yrotation
      JOINT LeftAnkle
      {
        OFFSET 4.16733e-012 -17.95 -5.98632e-012
        CHANNELS 3 Zrotation Xrotation Yrotation
        End Site
        {
          OFFSET 0 -3.12 0
        }
      }
    }
  }
  JOINT RightHip
  {
    OFFSET -3.43 -7.10543e-015 1.77636e-015
    CHANNELS 3 Zrotation Xrotation Yrotation
    JOINT RightKnee
    {
      OFFSET 1.35003e-013 -18.47 1.59872e-013
      CHANNELS 3 Zrotation Xrotation Yrotation
      JOINT RightAnkle
      {
        OFFSET 2.63611e-012 -17.95 -2.29505e-012
        CHANNELS 3 Zrotation Xrotation Yrotation
        End Site
        {
          OFFSET 0 -3.12 0
        }
      }
    }
  }
  JOINT Chest
  {
    OFFSET 7.10543e-015 4.57 1.06581e-014
    CHANNELS 3 Zrotation Xrotation Yrotation
    JOINT Chest2
    {
      OFFSET -2.13163e-014 6.57 2.4869e-014
      CHANNELS 3 Zrotation Xrotation Yrotation
      JOINT LeftCollar
      {
        OFFSET 1.06 4.19 1.76
        CHANNELS 3 Zrotation Xrotation Yrotation
        JOINT LeftShoulder
        {
          OFFSET 5.81 2.84217e-014 2.78e-013
          CHANNELS 3 Zrotation Xrotation Yrotation
          JOINT LeftElbow
          {
            OFFSET -3.10862e-014 -12.08 -8.98837e-013
            CHANNELS 3 Zrotation Xrotation Yrotation
            JOINT LeftWrist
            {
              OFFSET 3.50298e-012 -9.82 -1.58451e-012
              CHANNELS 3 Zrotation Xrotation Yrotation
              End Site
              {
                OFFSET 0 -7.37 0
              }
            }
          }
        }
      }
      JOINT RightCollar
      {
        OFFSET -1.06 4.19 1.76
        CHANNELS 3 Zrotation Xrotation Yrotation
        JOINT RightShoulder
        {
          OFFSET -6.06 1.7053e-013 9.50351e-014
          CHANNELS 3 Zrotation Xrotation Yrotation
          JOINT RightElbow
          {
            OFFSET 2.74269e-012 -11.08 -1.28964e-012
            CHANNELS 3 Zrotation Xrotation Yrotation
            JOINT RightWrist
            {
              OFFSET -1.86873e-012 -9.82 7.05569e-012
              CHANNELS 3 Zrotation Xrotation Yrotation
              End Site
              {
                OFFSET 0 -7.14001 0
              }
            }
          }
        }
      }
      JOINT Neck
      {
        OFFSET -4.61853e-014 4.05 9.59233e-014
        CHANNELS 3 Zrotation Xrotation Yrotation
        JOINT Head
        {
          OFFSET -1.59872e-013 5.19 3.21521e-013
          CHANNELS 3 Zrotation Xrotation Yrotation
          End Site
          {
            OFFSET 0 4.14001 0
          }
        }
      }
    }
  }
}
MOTION
Frames:	11
Frame Time:	0.0333333
-17.1084 24.3355 -21.8382 -16.2874 -15.7587 -46.7626 -13.0856 -57.4509 -8.00465 73.8988 84.3587 -80.3428 -0.192333 -7.778 -0.0130749 0.43906 -58.3366 -3.60532 -60.6171 84.1772 67.2158 0.461395 -6.39024 0.0257567 0.0901146 16.6314 -0.825109 -0.23171 14.6239 -1.47186 10.7591 -0.0815457 -1.62107 8.43969 -12.7491 -27.7664 -19.2161 -66.0374 -93.506 25.0333 0.430519 -0.0955755 -7.62279 0.314986 -1.28392 -9.19489 -11.3645 40.3331 -1.30406 -63.9832 74.1574 -30.0575 -6.61155 -1.77695 0.53817 -7.6266 -0.831126 2.19163 1.54984 -0.56992 
-17.112 24.3383 -21.8381 -16.3088 -15.7931 -46.7627 -13.0699 -57.3939 -7.98759 74.4006 84.3895 -80.7893 -0.183232 -7.85237 -0.0126001 0.448267 -58.2817 -3.60007 -61.1626 84.2222 67.6558 0.439651 -6.47243 0.0248592 0.12208 16.6404 -0.862699 -0.193245 14.6369 -1.51777 10.6798 -0.0773215 -1.5586 8.40146 -12.5893 -27.6078 -19.1513 -65.9858 -93.2522 25.1528 0.532395 -0.118775 -7.68956 0.316535 -1.31582 -9.02108 -11.3586 40.2998 -1.3763 -63.8376 73.9362 -30.2062 -6.33556 -1.71145 0.504482 -7.52458 -0.791795 2.04085 1.75459 -0.489565 
-17.1153 24.3418 -21.8371 -16.3311 -15.8391 -46.7649 -13.0614 -57.3245 -7.97296 74.8541 84.4225 -81.1883 -0.174756 -7.92625 -0.0121284 0.451277 -58.2173 -3.59554 -61.7478 84.2615 68.1364 0.420983 -6.55651 0.0241136 0.148786 16.6526 -0.889764 -0.162099 14.6537 -1.55007 10.6237 -0.0733208 -1.49274 8.31707 -12.4668 -27.4885 -19.0251 -65.8923 -92.9131 25.2765 0.618457 -0.138676 -7.74872 0.318083 -1.352 -8.87548 -11.3533 40.2623 -1.42438 -63.6945 73.7469 -30.3563 -6.06363 -1.64639 0.490565 -7.41281 -0.761467 1.88867 1.91546 -0.412904 
-17.1183 24.3458 -21.8356 -16.3529 -15.8945 -46.7687 -13.0583 -57.2465 -7.95984 75.2744 84.4581 -81.558 -0.166488 -8.00016 -0.0116501 0.452526 -58.1463 -3.58775 -62.3832 84.2949 68.6666 0.40657 -6.6428 0.0235952 0.171607 16.6674 -0.902946 -0.136664 14.6735 -1.56421 10.585 -0.0699356 -1.4337 8.19488 -12.3822 -27.4044 -18.8472 -65.7609 -92.4901 25.4033 0.689226 -0.155346 -7.80041 0.319671 -1.39411 -8.76645 -11.3459 40.2199 -1.43761 -63.5603 73.6091 -30.5135 -5.79389 -1.58158 0.490472 -7.28869 -0.743701 1.74207 2.02655 -0.350106 
-17.1213 24.3499 -21.8335 -16.3731 -15.9558 -46.773 -13.0589 -57.1639 -7.9481 75.6793 84.4956 -81.9186 -0.158054 -8.0744 -0.0111553 0.455354 -58.0723 -3.57456 -63.0686 84.3233 69.2453 0.396909 -6.73135 0.0233422 0.192904 16.6844 -0.905169 -0.114002 14.6961 -1.56372 10.5588 -0.0676576 -1.39356 8.05163 -12.3188 -27.3375 -18.6505 -65.6139 -92.0178 25.5339 0.75637 -0.171387 -7.84745 0.321355 -1.43881 -8.69534 -11.3379 40.1745 -1.41109 -63.4396 73.5398 -30.6822 -5.52682 -1.51732 0.49202 -7.15644 -0.735529 1.61134 2.0936 -0.304565 
-17.1244 24.3539 -21.8313 -16.3915 -16.0187 -46.776 -13.0623 -57.0812 -7.93855 76.0879 84.5339 -82.2901 -0.149126 -8.14912 -0.0106229 0.461282 -57.9986 -3.5562 -63.7931 84.3481 69.8614 0.39175 -6.82187 0.0233494 0.214694 16.7048 -0.903245 -0.0913161 14.7228 -1.55748 10.5408 -0.0667125 -1.37857 7.89754 -12.2485 -27.2586 -18.4377 -65.4785 -91.5353 25.6627 0.826366 -0.188224 -7.89234 0.32301 -1.48252 -8.65849 -11.3351 40.1304 -1.34391 -63.3349 73.551 -30.864 -5.26471 -1.45425 0.485284 -7.0299 -0.730204 1.50421 2.13208 -0.27223 
-17.1276 24.3577 -21.829 -16.4077 -16.079 -46.7762 -13.0681 -57.0024 -7.93227 76.5172 84.5715 -82.6894 -0.139429 -8.22424 -0.0100133 0.470448 -57.9285 -3.53425 -64.5431 84.3713 70.5014 0.390279 -6.91391 0.0235763 0.237625 16.7304 -0.903234 -0.0672172 14.7564 -1.5537 10.5246 -0.0667992 -1.38442 7.72832 -12.1459 -27.1372 -18.1531 -65.3683 -91.0595 25.7745 0.887561 -0.203074 -7.93502 0.324705 -1.52662 -8.65105 -11.3448 40.0915 -1.23653 -63.2487 73.6494 -31.058 -5.01002 -1.39296 0.468803 -6.92777 -0.721802 1.42152 2.15988 -0.245364 
-17.1309 24.361 -21.8267 -16.4209 -16.1325 -46.773 -13.0755 -56.9317 -7.92974 76.9803 84.6073 -83.1283 -0.128798 -8.2997 -0.009345 0.482777 -57.8655 -3.51028 -65.305 84.3946 71.1525 0.391307 -7.0068 0.023965 0.261657 16.7628 -0.907711 -0.0411922 14.799 -1.55592 10.5017 -0.0671719 -1.39794 7.52911 -12.0011 -26.9548 -17.7089 -65.2774 -90.5834 25.8481 0.913551 -0.209639 -7.97371 0.326543 -1.57754 -8.66931 -11.3716 40.06 -1.09012 -63.1837 73.8342 -31.2617 -4.76447 -1.33374 0.44953 -6.86427 -0.7085 1.35542 2.19007 -0.217104 
-17.1342 24.3639 -21.8246 -16.4294 -16.1754 -46.7666 -13.0827 -56.8736 -7.92988 77.4831 84.6409 -83.6113 -0.117152 -8.37546 -0.0085779 0.49958 -57.8136 -3.48418 -66.0679 84.419 71.8045 0.393507 -7.09968 0.0244209 0.287173 16.8016 -0.915375 -0.0125433 14.8501 -1.56242 10.4681 -0.0670826 -1.40468 7.28648 -11.8228 -26.7139 -17.0537 -65.1905 -90.104 25.8689 0.881741 -0.202507 -8.00711 0.328683 -1.64155 -8.71196 -11.414 40.034 -0.906255 -63.1428 74.0966 -31.4722 -4.52831 -1.27654 0.436081 -6.83895 -0.692386 1.2936 2.22536 -0.184591 
-17.1375 24.3663 -21.8228 -16.4307 -16.2043 -46.7588 -13.0862 -56.8323 -7.93003 78.0254 84.6722 -84.137 -0.104583 -8.45162 -0.00769627 0.523906 -57.7767 -3.45385 -66.8218 84.4446 72.4478 0.395616 -7.19157 0.0248609 0.315506 16.8442 -0.923201 0.0202531 14.9061 -1.56893 10.4279 -0.0661564 -1.39555 7.00442 -11.6348 -26.4415 -16.2365 -65.0975 -89.657 25.8396 0.792126 -0.181712 -8.03629 0.331157 -1.71794 -8.78071 -11.4646 40.0083 -0.685799 -63.1282 74.421 -31.6878 -4.30063 -1.22105 0.431711 -6.83451 -0.677013 1.22514 2.26023 -0.149111 
-17.141 24.3684 -21.8214 -16.4229 -16.217 -46.7512 -13.0824 -56.8105 -7.92675 78.5999 84.7015 -84.6976 -0.0912917 -8.52836 -0.00676416 0.55956 -57.7574 -3.4161 -67.5574 84.4711 73.0728 0.39669 -7.28157 0.0252412 0.348081 16.8869 -0.929011 0.0587974 14.962 -1.57226 10.3896 -0.0643549 -1.36721 6.71465 -11.4707 -26.1849 -15.4136 -64.9989 -89.3195 25.7854 0.674092 -0.154299 -8.06453 0.333638 -1.79597 -8.88014 -11.5135 39.9765 -0.427522 -63.142 74.7889 -31.9094 -4.07931 -1.16669 0.431883 -6.82443 -0.664629 1.14485 2.28682 -0.113786 
